<svg version="1.2" xmlns="http://www.w3.org/2000/svg" viewBox="0 0 959 924" width="959" height="924">
	<title>2818561_397367-PD6Q65-867-ai</title>
	<defs>
		<linearGradient id="g1" x2="1" gradientUnits="userSpaceOnUse" gradientTransform="matrix(39.845,0,0,52.018,534.526,466.065)">
			<stop offset="0" stop-color="#ffffff" stop-opacity="0"/>
			<stop offset=".994" stop-color="#94a0a6" stop-opacity="1"/>
		</linearGradient>
		<linearGradient id="g2" x2="1" gradientUnits="userSpaceOnUse" gradientTransform="matrix(14.728,-32.856,34.76,15.582,374.193,515.682)">
			<stop offset="0" stop-color="#ffffff" stop-opacity="0"/>
			<stop offset=".994" stop-color="#94a0a6" stop-opacity="1"/>
		</linearGradient>
		<linearGradient id="g3" x2="1" gradientUnits="userSpaceOnUse" gradientTransform="matrix(12.484,-76.466,79.382,12.96,433.409,276.605)">
			<stop offset="0" stop-color="#ffffff" stop-opacity="0"/>
			<stop offset="1" stop-color="#e0bad1" stop-opacity="1"/>
		</linearGradient>
		<linearGradient id="g4" x2="1" gradientUnits="userSpaceOnUse" gradientTransform="matrix(75.828,0,0,37.997,473.393,127.523)">
			<stop offset="0" stop-color="#ffffff" stop-opacity="0"/>
			<stop offset="1" stop-color="#e0bad1" stop-opacity="1"/>
		</linearGradient>
		<linearGradient id="g5" x2="1" gradientUnits="userSpaceOnUse" gradientTransform="matrix(-2.068,-14.889,15.608,-2.168,737.481,212.482)">
			<stop offset="0" stop-color="#ffffff" stop-opacity="0"/>
			<stop offset="1" stop-color="#bf9fb2" stop-opacity="1"/>
		</linearGradient>
		<linearGradient id="g6" x2="1" gradientUnits="userSpaceOnUse" gradientTransform="matrix(30.595,-9.617,8.775,27.918,710.796,137.45)">
			<stop offset="0" stop-color="#ffffff" stop-opacity="0"/>
			<stop offset=".991" stop-color="#fea0a6" stop-opacity="1"/>
		</linearGradient>
		<linearGradient id="g7" x2="1" gradientUnits="userSpaceOnUse" gradientTransform="matrix(4.74,14.963,-23.565,7.465,798.989,138.982)">
			<stop offset="0" stop-color="#ffffff" stop-opacity="0"/>
			<stop offset="1" stop-color="#e0bad1" stop-opacity="1"/>
		</linearGradient>
		<linearGradient id="g8" x2="1" gradientUnits="userSpaceOnUse" gradientTransform="matrix(8.581,15.544,-28.772,15.883,785.069,149.24)">
			<stop offset="0" stop-color="#ffffff" stop-opacity="0"/>
			<stop offset="1" stop-color="#e0bad1" stop-opacity="1"/>
		</linearGradient>
		<linearGradient id="g9" x2="1" gradientUnits="userSpaceOnUse" gradientTransform="matrix(18.406,-14.238,6.698,8.659,744.569,164.814)">
			<stop offset="0" stop-color="#ffffff" stop-opacity="0"/>
			<stop offset="1" stop-color="#e0bad1" stop-opacity="1"/>
		</linearGradient>
		<linearGradient id="g10" x2="1" gradientUnits="userSpaceOnUse" gradientTransform="matrix(7.116,21.498,-33.529,11.099,792.26,159.431)">
			<stop offset="0" stop-color="#ffffff" stop-opacity="0"/>
			<stop offset="1" stop-color="#e0bad1" stop-opacity="1"/>
		</linearGradient>
		<linearGradient id="g11" x2="1" gradientUnits="userSpaceOnUse" gradientTransform="matrix(7.971,25.024,-38.466,12.252,791.178,165.675)">
			<stop offset="0" stop-color="#ffffff" stop-opacity="0"/>
			<stop offset="1" stop-color="#e0bad1" stop-opacity="1"/>
		</linearGradient>
		<linearGradient id="g12" x2="1" gradientUnits="userSpaceOnUse" gradientTransform="matrix(-21.306,22.84,-13.754,-12.83,804.827,230.366)">
			<stop offset="0" stop-color="#ffffff" stop-opacity="0"/>
			<stop offset="1" stop-color="#e0bad1" stop-opacity="1"/>
		</linearGradient>
		<linearGradient id="g13" x2="1" gradientUnits="userSpaceOnUse" gradientTransform="matrix(-5.57,-13.462,13.902,-5.752,750.855,185.557)">
			<stop offset="0" stop-color="#ffffff" stop-opacity="0"/>
			<stop offset="1" stop-color="#e0bad1" stop-opacity="1"/>
		</linearGradient>
		<linearGradient id="g14" x2="1" gradientUnits="userSpaceOnUse" gradientTransform="matrix(-10.316,17.264,-23.858,-14.256,770.082,217.746)">
			<stop offset="0" stop-color="#ffffff" stop-opacity="0"/>
			<stop offset=".994" stop-color="#94a0a6" stop-opacity="1"/>
		</linearGradient>
		<linearGradient id="g15" x2="1" gradientUnits="userSpaceOnUse" gradientTransform="matrix(-86.38,59.801,-36.847,-53.223,720.872,339.054)">
			<stop offset="0" stop-color="#ffffff" stop-opacity="0"/>
			<stop offset=".994" stop-color="#94a0a6" stop-opacity="1"/>
		</linearGradient>
		<linearGradient id="g16" x2="1" gradientUnits="userSpaceOnUse" gradientTransform="matrix(-2.794,-14.77,15.483,-2.929,234.096,210.463)">
			<stop offset="0" stop-color="#ffffff" stop-opacity="0"/>
			<stop offset="1" stop-color="#bf9fb2" stop-opacity="1"/>
		</linearGradient>
		<linearGradient id="g17" x2="1" gradientUnits="userSpaceOnUse" gradientTransform="matrix(.286,15.693,-24.715,.45,152.339,160.449)">
			<stop offset="0" stop-color="#ffffff" stop-opacity="0"/>
			<stop offset="1" stop-color="#e0bad1" stop-opacity="1"/>
		</linearGradient>
		<linearGradient id="g18" x2="1" gradientUnits="userSpaceOnUse" gradientTransform="matrix(-3.169,17.47,-32.338,-5.865,168.807,165.726)">
			<stop offset="0" stop-color="#ffffff" stop-opacity="0"/>
			<stop offset="1" stop-color="#e0bad1" stop-opacity="1"/>
		</linearGradient>
		<linearGradient id="g19" x2="1" gradientUnits="userSpaceOnUse" gradientTransform="matrix(-21.988,-7.616,3.582,-10.344,212.159,167.554)">
			<stop offset="0" stop-color="#ffffff" stop-opacity="0"/>
			<stop offset="1" stop-color="#e0bad1" stop-opacity="1"/>
		</linearGradient>
		<linearGradient id="g20" x2="1" gradientUnits="userSpaceOnUse" gradientTransform="matrix(.12,22.645,-35.318,.188,165.245,177.679)">
			<stop offset="0" stop-color="#ffffff" stop-opacity="0"/>
			<stop offset="1" stop-color="#e0bad1" stop-opacity="1"/>
		</linearGradient>
		<linearGradient id="g21" x2="1" gradientUnits="userSpaceOnUse" gradientTransform="matrix(.436,26.259,-40.365,.671,168.264,183.251)">
			<stop offset="0" stop-color="#ffffff" stop-opacity="0"/>
			<stop offset="1" stop-color="#e0bad1" stop-opacity="1"/>
		</linearGradient>
		<linearGradient id="g22" x2="1" gradientUnits="userSpaceOnUse" gradientTransform="matrix(27.483,14.842,-8.938,16.55,175.985,248.914)">
			<stop offset="0" stop-color="#ffffff" stop-opacity="0"/>
			<stop offset="1" stop-color="#e0bad1" stop-opacity="1"/>
		</linearGradient>
		<linearGradient id="g23" x2="1" gradientUnits="userSpaceOnUse" gradientTransform="matrix(.98,-14.536,15.011,1.012,212.826,189.218)">
			<stop offset="0" stop-color="#ffffff" stop-opacity="0"/>
			<stop offset="1" stop-color="#e0bad1" stop-opacity="1"/>
		</linearGradient>
		<linearGradient id="g24" x2="1" gradientUnits="userSpaceOnUse" gradientTransform="matrix(15.288,13.066,-18.057,21.127,204.882,225.86)">
			<stop offset="0" stop-color="#ffffff" stop-opacity="0"/>
			<stop offset=".994" stop-color="#94a0a6" stop-opacity="1"/>
		</linearGradient>
		<linearGradient id="g25" x2="1" gradientUnits="userSpaceOnUse" gradientTransform="matrix(88.645,61.37,-39.967,57.731,278.526,322.438)">
			<stop offset="0" stop-color="#ffffff" stop-opacity="0"/>
			<stop offset=".994" stop-color="#94a0a6" stop-opacity="1"/>
		</linearGradient>
		<linearGradient id="g26" x2="1" gradientUnits="userSpaceOnUse" gradientTransform="matrix(7.193,-33.752,22.259,4.744,311.918,257.346)">
			<stop offset="0" stop-color="#ffffff" stop-opacity="0"/>
			<stop offset=".994" stop-color="#94a0a6" stop-opacity="1"/>
		</linearGradient>
		<linearGradient id="g27" x2="1" gradientUnits="userSpaceOnUse" gradientTransform="matrix(33.88,-17.486,15.88,30.768,331.329,879.477)">
			<stop offset="0" stop-color="#ffffff" stop-opacity="0"/>
			<stop offset=".994" stop-color="#94a0a6" stop-opacity="1"/>
		</linearGradient>
		<linearGradient id="g28" x2="1" gradientUnits="userSpaceOnUse" gradientTransform="matrix(-30.298,-15.638,16.172,-31.333,617.401,868.165)">
			<stop offset="0" stop-color="#ffffff" stop-opacity="0"/>
			<stop offset=".994" stop-color="#94a0a6" stop-opacity="1"/>
		</linearGradient>
		<linearGradient id="g29" x2="1" gradientUnits="userSpaceOnUse" gradientTransform="matrix(-5.859,-148.433,131.376,-5.186,612.306,638.39)">
			<stop offset="0" stop-color="#ffffff" stop-opacity="0"/>
			<stop offset=".994" stop-color="#94a0a6" stop-opacity="1"/>
		</linearGradient>
		<linearGradient id="g30" x2="1" gradientUnits="userSpaceOnUse" gradientTransform="matrix(-95.168,-70.029,173.881,-236.299,405.383,607.689)">
			<stop offset="0" stop-color="#ffffff" stop-opacity="0"/>
			<stop offset=".994" stop-color="#94a0a6" stop-opacity="1"/>
		</linearGradient>
		<linearGradient id="g31" x2="1" gradientUnits="userSpaceOnUse" gradientTransform="matrix(97.37,-48.685,103.937,207.873,203.299,-5.108)">
			<stop offset="0" stop-color="#ffffff" stop-opacity="0"/>
			<stop offset=".994" stop-color="#94a0a6" stop-opacity="1"/>
		</linearGradient>
		<linearGradient id="g32" x2="1" gradientUnits="userSpaceOnUse" gradientTransform="matrix(10.084,-40.67,148.455,36.809,519.949,444.394)">
			<stop offset="0" stop-color="#ffffff" stop-opacity="0"/>
			<stop offset=".994" stop-color="#94a0a6" stop-opacity="1"/>
		</linearGradient>
		<linearGradient id="g33" x2="1" gradientUnits="userSpaceOnUse" gradientTransform="matrix(4.6,-41.648,152.026,16.79,431.73,436.07)">
			<stop offset="0" stop-color="#ffffff" stop-opacity="0"/>
			<stop offset=".994" stop-color="#94a0a6" stop-opacity="1"/>
		</linearGradient>
	</defs>
	<style>
		.s0 { mix-blend-mode: multiply;fill: #e5e6e9 } 
		.s1 { fill: #32323b } 
		.s2 { mix-blend-mode: multiply;fill: url(#g1) } 
		.s3 { mix-blend-mode: multiply;fill: url(#g2) } 
		.s4 { fill: #efb299 } 
		.s5 { mix-blend-mode: multiply;fill: url(#g3) } 
		.s6 { fill: #f5c5b3 } 
		.s7 { fill: #c6797a } 
		.s8 { mix-blend-mode: multiply;fill: #e8d4e5 } 
		.s9 { fill: #782f38 } 
		.s10 { fill: #542f38 } 
		.s11 { fill: #8e373f } 
		.s12 { fill: #ca6772 } 
		.s13 { fill: #ffffff } 
		.s14 { opacity: .3;fill: #ffffff } 
		.s15 { fill: #f49a8a } 
		.s16 { mix-blend-mode: multiply;fill: url(#g4) } 
		.s17 { fill: #be2950 } 
		.s18 { mix-blend-mode: multiply;fill: url(#g5) } 
		.s19 { mix-blend-mode: multiply;fill: url(#g6) } 
		.s20 { mix-blend-mode: multiply;fill: url(#g7) } 
		.s21 { mix-blend-mode: multiply;fill: url(#g8) } 
		.s22 { mix-blend-mode: multiply;fill: url(#g9) } 
		.s23 { mix-blend-mode: multiply;fill: url(#g10) } 
		.s24 { mix-blend-mode: multiply;fill: url(#g11) } 
		.s25 { mix-blend-mode: multiply;fill: url(#g12) } 
		.s26 { mix-blend-mode: multiply;fill: url(#g13) } 
		.s27 { mix-blend-mode: multiply;fill: url(#g14) } 
		.s28 { mix-blend-mode: multiply;fill: url(#g15) } 
		.s29 { mix-blend-mode: multiply;fill: url(#g16) } 
		.s30 { mix-blend-mode: multiply;fill: url(#g17) } 
		.s31 { mix-blend-mode: multiply;fill: url(#g18) } 
		.s32 { mix-blend-mode: multiply;fill: url(#g19) } 
		.s33 { mix-blend-mode: multiply;fill: url(#g20) } 
		.s34 { mix-blend-mode: multiply;fill: url(#g21) } 
		.s35 { mix-blend-mode: multiply;fill: url(#g22) } 
		.s36 { mix-blend-mode: multiply;fill: url(#g23) } 
		.s37 { mix-blend-mode: multiply;fill: url(#g24) } 
		.s38 { mix-blend-mode: multiply;fill: url(#g25) } 
		.s39 { fill: #dfdcf0 } 
		.s40 { mix-blend-mode: multiply;fill: url(#g26) } 
		.s41 { fill: #57bbf0 } 
		.s42 { opacity: .5;mix-blend-mode: multiply;fill: #9595b4 } 
		.s43 { fill: #0f1012 } 
		.s44 { fill: #35373f } 
		.s45 { mix-blend-mode: multiply;fill: url(#g27) } 
		.s46 { mix-blend-mode: multiply;fill: url(#g28) } 
		.s47 { mix-blend-mode: multiply;fill: url(#g29) } 
		.s48 { fill: #9595b4 } 
		.s49 { opacity: .3;mix-blend-mode: multiply;fill: none;stroke: #3a383b;stroke-miterlimit:10;stroke-width: 2 } 
		.s50 { mix-blend-mode: multiply;fill: url(#g30) } 
		.s51 { mix-blend-mode: multiply;fill: url(#g31) } 
		.s52 { mix-blend-mode: multiply;fill: url(#g32) } 
		.s53 { mix-blend-mode: multiply;fill: url(#g33) } 
		.s54 { fill: #eab945 } 
		.s55 { fill: #4a7637 } 
		.s56 { fill: #54509d } 
		.s57 { fill: #f06122 } 
		.s58 { fill: #ee4256 } 
		.s59 { fill: #17b3b2 } 
		.s60 { fill: #8bc53f } 
		.s61 { fill: #37b34a } 
		.s62 { fill: #e7194f } 
	</style>
	<g id="BACKGROUND">
		<path id="&lt;Path&gt;" class="s0" d="m439.1 881c-81 4.2-95 0.5-147.5 11.6-52.6 11.1-80.6 26 35 25.7 66.4-0.2 150.9-1.3 254.1 0 203.5 2.5 168.6-13.2 98.3-27.1-70.3-13.9-199.4-12.4-239.9-10.2z"/>
	</g>
	<g id="OBJECTS">
		<g id="&lt;Group&gt;">
			<path id="&lt;Path&gt;" class="s1" d="m538.7 508.4c6.9 7.7 35.2 14.6 35.6 5 0.4-9.7 0-36-25.1-46.1-25-10-10.5 41.1-10.5 41.1z"/>
			<path id="&lt;Path&gt;" class="s2" d="m538.7 508.4c6.9 7.7 35.2 14.6 35.6 5 0.4-9.7 0-36-25.1-46.1-25-10-10.5 41.1-10.5 41.1z"/>
			<path id="&lt;Path&gt;" class="s1" d="m398.8 462.3c-7.3 4.6-16.8 8.4-15.5 14.7 1.4 6.3 11.4 16.8 26 16.3 14.6-0.4 23.2-29.1 23.2-29.1z"/>
			<path id="&lt;Path&gt;" class="s3" d="m398.8 462.3c-7.3 4.6-16.8 8.4-15.5 14.7 1.4 6.3 11.4 16.8 26 16.3 14.6-0.4 23.2-29.1 23.2-29.1z"/>
			<g id="&lt;Group&gt;">
				<path id="&lt;Path&gt;" class="s4" d="m525.3 252.7c-3.7-1.3 0.8-32.2 2-38.4-12.9-3-40.9-3.6-51.9-3.7-0.4 4.9-3.7 36.8-5.5 39.5-1.8 2.6-29.2 8.6-29.2 8.6 0 0-4 12.2 8.9 32 12.9 19.8 57.5 30.4 72 24.8 14.6-5.6 29.1-54.8 29.1-54.8 0 0-21.8-6.7-25.4-8z"/>
				<path id="&lt;Path&gt;" class="s5" d="m525.3 252.7c-3.7-1.3 0.8-32.2 2-38.4-12.9-3-40.9-3.6-51.9-3.7-0.4 4.9-3.7 36.8-5.5 39.5-1.8 2.6-29.2 8.6-29.2 8.6 0 0-4 12.2 8.9 32 12.9 19.8 57.5 30.4 72 24.8 14.6-5.6 29.1-54.8 29.1-54.8 0 0-21.8-6.7-25.4-8z"/>
				<g id="&lt;Group&gt;">
					<path id="&lt;Path&gt;" class="s6" d="m533.3 197.6c0 0-0.9-12.1 8.9-12.1 9.8 0 6.2 19.9-2.1 27.9-3 3-7.6 1.6-8.6-0.5-1.7-3.6 1.8-15.3 1.8-15.3z"/>
					<path id="&lt;Path&gt;" class="s7" d="m536.7 198.8c0 0 0.5-6.3 5.4-7 4.9-0.6 4.7 7.9 0.5 11.7-4.2 3.8-4.9 3.1-4.9 3.1 0 0 2.9-3.2 2.8-4.3-0.1-0.9-3.8-3.5-3.8-3.5z"/>
				</g>
				<g id="&lt;Group&gt;">
					<path id="&lt;Path&gt;" class="s6" d="m467.9 195.2c0 0 3-11.8-6.6-13.5-9.7-1.6-9.4 18.5-2.8 28 3.3 4.7 7.4 3 8.6 0.9 2-3.4 0.8-15.4 0.8-15.4z"/>
					<path id="&lt;Path&gt;" class="s7" d="m464.4 195.8c0 0 0.6-6.3-4.1-7.8-4.8-1.4-6 7-2.5 11.4 3.4 4.5 4.3 3.9 4.3 3.9 0 0-2.4-3.7-2.1-4.7 0.3-0.8 4.4-2.8 4.4-2.8z"/>
				</g>
				<g id="&lt;Group&gt;">
					<path id="&lt;Path&gt;" class="s6" d="m540 188.8c-0.1 0-0.5 4.1-1.5 9.6-2.4 12.4-5.9 20.5-7.3 24.4-3.1 8.8-12.5 14.9-21.2 19.8-3.5 1.9-8 3.1-13.6 2.7-5.6-0.5-9.8-2.5-12.8-5-7.8-6.3-16.1-13.9-17.7-23.1-0.6-3.6-2.8-10.9-3.4-23.1q0-1.1 0-2.2c-0.2-3.4-0.3-6.8-0.4-10.2-0.2-7.2-0.9-7.1-0.9-12.8 0.1-6.4 0.3-11.2 0.7-12.9 0.4-1.4 1.6-3.4 3.4-5.6q0.2-0.3 0.4-0.6c1.8-2.1 4.1-4.6 6.7-6.9q0.7 0.1 1.4 0.1c12.1 1 24.3-0.4 36.5-0.1 6.3 0.1 12.6 0 19-0.2 2.8 3.9 5.5 8.4 7.7 12.7 2.3 4.5 3.4 8.4 4.4 11.5 0.3 1.1 0.6 2.1 0.7 2.8q0 0.2 0 0.4 0.1 0.5 0.1 1.3c-0.1 3.3-1 9.8-2.2 17.4z"/>
					<path id="&lt;Path&gt;" class="s8" d="m542.1 169.7q-2.4 0.9-4.8 1.6c-6.2 1.7-12.6 2.4-19 2.2-14.8-0.7-29.3-6.9-40.1-17.2-2.2-2.1-4.4-4.6-5-7.7-0.3-1.8-0.1-3.8 0.6-5.6 12.1 1 24.3-0.4 36.5-0.1 6.3 0.1 12.6 0 19-0.2 2.8 3.9 5.5 8.4 7.7 12.7 2.3 4.5 3.4 8.4 4.4 11.5 0.3 1.1 0.6 2.1 0.7 2.8z"/>
					<g id="&lt;Group&gt;">
						<path id="&lt;Path&gt;" class="s9" d="m538.5 198.4l-2.4-3.8c0 0 2.8-8.7-1.3-15.1l-5.2-24.7 7.6 1.5 3.3 0.7 1.6 12 0.6 4.7z"/>
					</g>
					<g id="&lt;Group&gt;">
						<path id="&lt;Path&gt;" class="s10" d="m542.1 176.8l0.8-4.4-0.6-4.8-1.6-12-3.3-0.6-8.3-2.1 3.8 17.6c2.9 1.9 6.4 4.4 9.2 6.3z"/>
					</g>
					<g id="&lt;Group&gt;">
						<path id="&lt;Path&gt;" class="s9" d="m461.3 191.8l3-3.3c0 0-1.3-9.1 3.8-14.7l9.3-23.4-3.2-1.7c-5.1-2.6-11.3-0.4-14.3 5.1z"/>
					</g>
					<g id="&lt;Group&gt;">
						<path id="&lt;Path&gt;" class="s10" d="m524.4 156.8c2.8 5.6 10 6 14.3 9.9 4.2 3.9 4 7 4 7 0 0 7.7-7.7 3.9-17.4-2.5-6.3-6.2-9.8-6.2-9.8z"/>
					</g>
					<g id="&lt;Group&gt;">
						<path id="&lt;Path&gt;" class="s11" d="m549.2 149.4c-1.4 1.8-3.4 3.5-6.1 4.5-10.5 4-16.5 13.5-37.1 11.3-20.6-2.2-31-12.6-31-12.6-5.6 6-14.9 11.7-14.9 11.7 0 0-4.7-10.4-1-18.9 3.4-7.7 11-9.8 15.1-6.2 0 0-0.2-0.5-0.5-1.3q0 0 0 0 0 0 0-0.1c-0.4-1.6-0.8-4.8 1.5-8.7q0.9-1.5 2.3-3.1c8.8-9.8 41 0.5 50.5 6.1 9.6 5.6 25 4.7 25 4.7 0 0 0.4 7.2-3.8 12.6z"/>
					</g>
				</g>
				<g id="&lt;Group&gt;">
					<path id="&lt;Path&gt;" class="s12" d="m522.9 189.1c0 0-9 3.3-13.1 2.1 0 0 6.3 9.2 13.1-2.1z"/>
					<path id="&lt;Path&gt;" class="s13" d="m523.9 188c0 0-1.6 2.4-5.9 4.1-4.3 1.8-7 1.1-10.1-3.1 0 0 1.2-2.1 3.1-3.3 4.2-2.5 8.6-1 9.7-0.4 1.3 0.8 2.6 1.8 3.2 2.7z"/>
					<g id="&lt;Group&gt;">
						<path id="&lt;Path&gt;" class="s10" d="m513.9 184.9c-3.7 1.9-1.2 6.3-0.1 6.6 2.7 0.9 4.8-0.8 5.5-2 0.7-1.4 0.5-2.9-1.6-4.4-1.3-0.9-3.8-0.2-3.8-0.2z"/>
					</g>
					<path id="&lt;Path&gt;" class="s14" d="m516.8 185.6q0 0 0.1 0.1c0.9 0.8 1.1 2.2 0 2.7-1.4 0.7-3.1 1.3-3.2-0.3-0.2-2 1.6-3.2 3.1-2.5z"/>
				</g>
				<g id="&lt;Group&gt;">
					<path id="&lt;Path&gt;" class="s12" d="m477.7 186.7c0 0 9 3.3 13.1 2.1 0 0-6.3 9.2-13.1-2.1z"/>
					<path id="&lt;Path&gt;" class="s13" d="m476.7 185.6c0 0 1.6 2.4 5.9 4.1 4.3 1.8 7 1.1 10.1-3.1 0 0-1.2-2.1-3.1-3.3-4.2-2.5-8.6-1-9.7-0.4-1.3 0.8-2.6 1.8-3.2 2.7z"/>
					<g id="&lt;Group&gt;">
						<path id="&lt;Path&gt;" class="s10" d="m482.9 182.7c-2.1 1.5-2.3 3-1.5 4.4 0.6 1.2 2.7 2.8 5.4 2 1.1-0.3 3.6-4.7-0.1-6.6 0 0-2.5-0.7-3.8 0.2z"/>
					</g>
					<path id="&lt;Path&gt;" class="s14" d="m487 185.7c-0.1 1.6-1.9 1-3.3 0.3-1.1-0.5-0.9-1.9 0.1-2.7q0-0.1 0-0.1c1.5-0.7 3.3 0.5 3.2 2.5z"/>
				</g>
				<path id="&lt;Path&gt;" class="s15" d="m504.7 201.4c-1.1-1.8-1.5-7-1.6-10.2 0-1.6-1.2-2.8-2.7-3-1.5-0.1-2.9 1-3.2 2.5-0.7 3.2-1.9 8.2-3.3 9.8-2.1 2.3-2.2 3.5-0.9 4.6 1.3 1.1 2 0.7 2.9 1.9 0.8 1.1 2 1.6 2.8 1.6 0.8 0.1 2-0.1 2.9-1.1 1.1-1 1.8-0.5 3.2-1.4 1.5-0.9 1.6-2-0.1-4.7z"/>
				<path id="&lt;Path&gt;" class="s16" d="m549.2 149.4c-1.4 1.8-3.4 3.5-6.1 4.5-10.5 4-16.5 13.5-37.1 11.3-20.6-2.2-31-12.6-31-12.6 0.2-5.8 1.3-11.9-1.3-14.7q0 0 0 0 0 0 0-0.1c-0.4-1.6-0.8-4.8 1.5-8.7 6.9-2.6 14-2.6 16.9 4.5 4 9.6 18.9 15.4 25.9 13.8 6.9-1.7 12-2.2 10.7-1.9-1.4 0.4-1.4 3.5-4.7 4.9-3.2 1.3 7.8 1.9 14.2 1.2 3.5-0.4 7.8-1.4 11-2.2z"/>
				<path id="&lt;Path&gt;" class="s9" d="m519.4 175.6c-4.1-0.9-6.7 0-8.1 0.6 0.5-0.3 1.1-0.6 1.6-0.8 0 0-4.8 0.5-6 3.3 0 0 2.4 1.2 6.8-0.2 7.6-2.3 10-0.1 12.7 2.1 0 0-1-3.6-7-5z"/>
				<path id="&lt;Path&gt;" class="s9" d="m484.5 172.1c4.3-0.3 6.7 1 8 1.8-0.5-0.4-1-0.8-1.4-1.1 0 0 4.6 1.3 5.3 4.3 0 0-2.5 0.8-6.6-1.2-7.1-3.5-9.9-1.7-12.9 0.1 0 0 1.5-3.4 7.6-3.9z"/>
				<g id="&lt;Group&gt;">
					<g id="&lt;Group&gt;">
						<path id="&lt;Path&gt;" class="s10" d="m508.1 216.9c0 0-0.3 5.9-3.7 10.1q-0.2 0.3-0.4 0.5c-3.7 4.1-8.4 2.5-11-0.6-0.6-0.7-1.1-1.4-1.4-2.2-1.8-4.3-1.8-8.5-1.8-8.5q0.9-0.5 1.6-0.8c2.3-1.2 4.2-1.6 7.9-1.6 3.7 0 6.2 1.1 7.5 2 0.9 0.7 1.3 1.1 1.3 1.1z"/>
					</g>
					<g id="&lt;Group&gt;">
						<path id="&lt;Path&gt;" class="s17" d="m504.4 227q-0.2 0.3-0.4 0.5c-3.7 4.1-8.4 2.5-11-0.6 2-1.6 4.7-2.7 7.8-2 1.6 0.5 2.8 1.2 3.6 2.1z"/>
					</g>
					<path id="&lt;Path&gt;" class="s13" d="m506.8 215.8c-0.3 0.6-1.1 1.6-2.4 1.4-2.6-0.3-5.7-1.4-9.6-0.2-2 0.6-2.8-0.5-3.4-1.6 2.3-1.2 4.2-1.6 7.9-1.6 3.7 0 6.2 1.1 7.5 2z"/>
				</g>
			</g>
			<g id="&lt;Group&gt;">
				<path id="&lt;Path&gt;" class="s4" d="m764.7 220.9c-7.2 8-24.2 27-24.2 27l-17.3-20c0 0 9.6-10.4 18.9-22.6l15.2 5.6z"/>
				<path id="&lt;Path&gt;" class="s4" d="m789 193.3c-0.6 3.3-0.9 6.9-3.8 9.5-3 2.6-7 8.3-10.6 10.8-3.7 2.6-9.9 7.3-9.9 7.3l-19.4-13.6c0 0 9.6-13.1 14.2-20.1 4.6-7 11.9-10.7 11.9-10.7z"/>
				<path id="&lt;Path&gt;" class="s18" d="m789 193.3c-0.6 3.3-0.9 6.9-3.8 9.5-3 2.6-7 8.3-10.6 10.8-3.7 2.6-9.9 7.3-9.9 7.3l-19.4-13.6c0 0 9.6-13.1 14.2-20.1 4.6-7 11.9-10.7 11.9-10.7z"/>
				<path id="&lt;Path&gt;" class="s19" d="m726.6 240c4.8 0.1 9.5 0.3 14.2 0.4-0.3-6.2-0.1-12.7 0.6-19.1 3.5-29.2 9.3-33.4 19.1-38.9 10-5.5 18.4-1 18.4-1 0 0-3.3-8.6-13.8-11.4-2.7-0.8-10.6-0.7-21.3 9.3-10.6 10.1-17.4 36.3-17.4 54.4q0 3 0.2 6.3z"/>
				<path id="&lt;Path&gt;" class="s4" d="m780.1 161.4c-1.5-4.4-0.9-5-3.5-6-2.7-0.9-4-1.4-7.4 2.2-3.4 3.5-8.1 8.8-9 12.7-0.9 3.9 0.7 5.1 1.5 6.7 0.8 1.7 4.6-3.9 7.8-6.8 3.1-2.9 10.6-8.8 10.6-8.8z"/>
				<path id="&lt;Path&gt;" class="s20" d="m760.9 175.5q0 0 0 0.1c0.3 0.5 0.6 0.9 0.8 1.4 0.8 1.7 4.6-3.9 7.8-6.8 3.1-2.9 10.6-8.8 10.6-8.8-0.7-2-0.9-3.2-1.2-4-8.6 0.2-13.9 11.9-18 18.1z"/>
				<path id="&lt;Path&gt;" class="s4" d="m785.2 171.3c-0.8-4.3-0.5-8.1-2.8-9-2.3-0.9-4.6-1.8-6.7-0.2-2.1 1.7-10.2 10.1-11.5 11.4-1.3 1.3-0.7 3.3-0.5 5.9 0.2 2.5 1.3 5.2 2.2 4.1 1-1.1 3.1-3.3 6.9-6 3.7-2.7 12.4-6.2 12.4-6.2z"/>
				<path id="&lt;Path&gt;" class="s21" d="m785.2 171.3c0 0-5 2-9.1 4.2-1.3 0.7-2.4 1.3-3.3 2-3.8 2.7-6 4.9-6.9 6-0.9 1.1-2-1.6-2.2-4.1-0.2-2.6-0.8-4.6 0.5-5.9 1.2-1.2 8.3-8.6 11-10.9q0.3-0.3 0.5-0.5c2.1-1.6 4.4-0.7 6.7 0.2 2.3 0.9 2 4.7 2.8 9z"/>
				<path id="&lt;Path&gt;" class="s22" d="m778.9 171.5c-0.7 1.3-1.7 2.7-2.8 4-1.3 0.7-2.4 1.3-3.3 2-3.8 2.7-6 4.9-6.9 6-0.9 1.1-2-1.6-2.2-4.1-0.2-2.6-0.8-4.6 0.5-5.9 1.2-1.2 8.3-8.6 11-10.9 1.8 0.2 3.7 0.6 4.6 2.1 0.9 1.6 0 5.3-0.9 6.8z"/>
				<path id="&lt;Path&gt;" class="s4" d="m787.3 181.1c-0.4-2.4 0.8-6.2-0.1-7.7-0.9-1.6-3.6-3.8-5.9-3.4-2.3 0.4-8.8 5.5-11.9 8.6-3.1 3.1-3.9 5.3-3.8 7.4 0.2 2.2 4.6 4.9 5.5 3.9 0.8-1.1 5.2-5.5 9-6.9 3.7-1.4 7.2-1.9 7.2-1.9z"/>
				<path id="&lt;Path&gt;" class="s23" d="m787.3 181.1c-0.4-2.4 0.8-6.2-0.1-7.7-0.9-1.6-3.6-3.8-5.9-3.4-2.3 0.4-8.8 5.5-11.9 8.6-3.1 3.1-3.9 5.3-3.8 7.4 0.2 2.2 4.6 4.9 5.5 3.9 0.8-1.1 5.2-5.5 9-6.9 3.7-1.4 7.2-1.9 7.2-1.9z"/>
				<path id="&lt;Path&gt;" class="s4" d="m787.3 181.1c-2-0.1-8.9 1.1-10.4 2-1.6 1-3.9 4-4.9 5.4-0.9 1.4-2.3 5-2.2 5.9 0.2 0.8 4.3 2.2 5.7 1 1.4-1.2 4.2-3.6 4.2-3.6 0 0 2.6 0 3.8-0.5 0 0 2.7 2.5 5.6 2.5 0 0 0.1-4.7-0.3-7.9-0.3-3.2 0.2-4.6-1.5-4.8z"/>
				<path id="&lt;Path&gt;" class="s24" d="m787.3 181.1c-2-0.1-8.9 1.1-10.4 2-1.6 1-3.9 4-4.9 5.4-0.9 1.4-2.3 5-2.2 5.9 0.2 0.8 4.3 2.2 5.7 1 1.4-1.2 4.2-3.6 4.2-3.6 0 0 2.6 0 3.8-0.5 0 0 2.7 2.5 5.6 2.5 0 0 0.1-4.7-0.3-7.9-0.3-3.2 0.2-4.6-1.5-4.8z"/>
				<path id="&lt;Path&gt;" class="s4" d="m753.3 207.3c-4.4 7.5-11.2-2-11.2-2 0.4-1.6 3.7-9.9 4.1-15 0.5-5 1.6-10.5 4.9-14.3 3.3-4 10.4-14 11.9-14.8 1.4-0.8 3.9 0.2 7.1 0.8 3.2 0.6 8.6 1.6 8.7 2.5 0 0.2 0 0.4-0.1 0.7-0.1 1.7-1.3 5.7-4.9 6.4-4.3 0.9-6.6 0.5-6.9 1.2-0.3 0.7-1.7 2.9-2.3 3.9 0 0 2.9 3.9 2.5 9.6-0.1 0.9-0.2 1.9-0.5 3-1.9 7.3-9.7 11.8-13.3 18z"/>
				<path id="&lt;Path&gt;" class="s25" d="m768.5 216.7c-7.2 7.9-28 31.2-28 31.2l-17.3-20c0 0 9.6-10.4 18.9-22.6 0 0 5.3-27.3 24.9-3.5 2.4 2.9 1.5 14.9 1.5 14.9z"/>
				<path id="&lt;Path&gt;" class="s26" d="m767.1 186.3c-0.3-0.9-2-4.5-2.9-5.1-5.7-4.6-1.2-3.7-0.8-10.3 0.1-1.1 1.5-5.3 1.6-5.8 0.1 0.1 3.2 2.8 8.4 1.8 0.9-0.2 2.8 0.3 5.3-1.7-0.1 1.7-1.3 5.7-4.9 6.4-4.3 0.9-6.6 0.5-6.9 1.2-0.3 0.7-1.7 2.9-2.3 3.9 0 0 2.9 3.9 2.5 9.6z"/>
				<path id="&lt;Path&gt;" class="s13" d="m732.1 215.8c-0.5-1.4 7.3-7.9 7.3-7.9 0 0 5.7 6.2 8.8 8.6 3.1 2.6 16.1 11.3 16.1 11.3l-15.3 14.5c0 0-14.6-11.2-17.3-16.8-2.8-5.7 0.4-9.7 0.4-9.7z"/>
				<path id="&lt;Path&gt;" class="s27" d="m732.1 215.8c-0.5-1.4 7.3-7.9 7.3-7.9 0 0 5.7 6.2 8.8 8.6 3.1 2.6 16.1 11.3 16.1 11.3l-15.3 14.5c0 0-14.6-11.2-17.3-16.8-2.8-5.7 0.4-9.7 0.4-9.7z"/>
				<path id="&lt;Path&gt;" class="s1" d="m590.7 264.8c8.5 0 62.7 0.3 69.3-2 6.7-2.2 73.5-50.2 73.5-50.2 0 0 4.3 4.8 11.6 12.7 4.3 4.6 15.5 14 15.5 14 0 0-36.6 27.5-49.6 40.1-12.9 12.5-34.5 22.9-44.8 25.5-10.3 2.5-82.8 14.2-85.8 15.2-3.1 1.1-4.3 49-4.3 49 0 0-4.6-26.3-5.9-55-1.4-28.6 20.5-49.3 20.5-49.3z"/>
				<path id="&lt;Path&gt;" class="s28" d="m656.7 274.9q-0.4-5.7-0.8-11.4c-15.5 1.5-57.7 1.3-65.2 1.3 0 0-21.9 20.7-20.5 49.3 1.3 28.7 5.9 55 5.9 55 0 0 1.2-47.9 4.3-49 2.4-0.8 51-8.5 78-12.8-0.6-10.9-0.9-21.7-1.7-32.4z"/>
			</g>
			<g id="&lt;Group&gt;">
				<g id="&lt;Group&gt;">
					<path id="&lt;Path&gt;" class="s4" d="m211 227.2c9.4 5.2 31.6 17.8 31.6 17.8l9.9-24.5c0 0-12.4-6.8-25.1-15.3l-12.6 10.1z"/>
					<path id="&lt;Path&gt;" class="s4" d="m179.2 208.7c1.5 3 3 6.3 6.6 7.8 3.6 1.6 9.2 5.6 13.5 6.9 4.3 1.3 11.7 3.8 11.7 3.8l14-19.2c0 0-13.2-9.3-19.8-14.5-6.6-5.2-14.7-6.3-14.7-6.3z"/>
					<path id="&lt;Path&gt;" class="s29" d="m179.2 208.7c1.5 3 3 6.3 6.6 7.8 3.6 1.6 9.2 5.6 13.5 6.9 4.3 1.3 11.7 3.8 11.7 3.8l14-19.2c0 0-13.2-9.3-19.8-14.5-6.6-5.2-14.7-6.3-14.7-6.3z"/>
					<path id="&lt;Path&gt;" class="s4" d="m177.4 175.6c0-4.6-0.8-5 1.4-6.7 2.2-1.8 3.4-2.6 7.7-0.4 4.3 2.3 10.4 5.8 12.6 9.2 2.1 3.5 1 5.1 0.7 6.9-0.2 1.9-5.6-2.2-9.5-4-3.9-1.7-12.9-5-12.9-5z"/>
					<path id="&lt;Path&gt;" class="s30" d="m200.1 182.9q0 0 0.1 0.1c-0.2 0.5-0.3 1.1-0.4 1.6-0.2 1.9-5.6-2.2-9.5-4-3.9-1.7-12.9-5-12.9-5 0-2.1-0.1-3.3-0.1-4.1 8.2-2.6 16.9 6.8 22.8 11.4z"/>
					<path id="&lt;Path&gt;" class="s4" d="m175.7 186.7c-0.6-4.3-2.1-7.9-0.2-9.5 1.9-1.6 3.8-3.1 6.3-2.2 2.5 0.9 12.9 6.2 14.5 7 1.6 0.9 1.8 3 2.4 5.5 0.6 2.4 0.4 5.4-0.8 4.6-1.3-0.8-4-2.2-8.4-3.5-4.4-1.4-13.8-1.9-13.8-1.9z"/>
					<path id="&lt;Path&gt;" class="s31" d="m175.7 186.7c0 0 5.4 0.3 10 1 1.4 0.3 2.7 0.5 3.8 0.9 4.4 1.3 7.2 2.7 8.4 3.5 1.2 0.7 1.4-2.2 0.8-4.6-0.6-2.5-0.8-4.6-2.4-5.4-1.5-0.8-10.6-5.5-13.9-6.9q-0.3-0.2-0.6-0.2c-2.5-0.9-4.4 0.6-6.3 2.2-1.9 1.6-0.4 5.2 0.2 9.5z"/>
					<path id="&lt;Path&gt;" class="s32" d="m181.7 184.8c1.2 1.1 2.5 2.1 4 2.9 1.4 0.3 2.7 0.5 3.8 0.9 4.4 1.3 7.2 2.7 8.4 3.5 1.2 0.7 1.4-2.2 0.8-4.6-0.6-2.5-0.8-4.6-2.4-5.4-1.5-0.8-10.6-5.5-13.9-6.9-1.7 0.8-3.3 1.8-3.6 3.5-0.4 1.8 1.6 5 2.9 6.1z"/>
					<path id="&lt;Path&gt;" class="s4" d="m176.9 196.6c-0.5-2.3-2.8-5.5-2.4-7.3 0.3-1.8 2.2-4.7 4.5-5.1 2.3-0.4 10.1 2.4 14 4.3 4 2 5.5 3.8 6 5.9 0.5 2.1-2.8 6.1-3.9 5.4-1.2-0.8-6.8-3.5-10.8-3.7-4-0.1-7.4 0.5-7.4 0.5z"/>
					<path id="&lt;Path&gt;" class="s33" d="m176.9 196.6c-0.5-2.3-2.8-5.5-2.4-7.3 0.3-1.8 2.2-4.7 4.5-5.1 2.3-0.4 10.1 2.4 14 4.3 4 2 5.5 3.8 6 5.9 0.5 2.1-2.8 6.1-3.9 5.4-1.2-0.8-6.8-3.5-10.8-3.7-4-0.1-7.4 0.5-7.4 0.5z"/>
					<path id="&lt;Path&gt;" class="s4" d="m176.9 196.6c1.8-0.8 8.7-1.7 10.5-1.4 1.8 0.4 4.9 2.6 6.3 3.6 1.4 1 3.8 4 3.9 4.8 0.2 0.9-3.3 3.5-5 2.8-1.7-0.7-5.2-2.1-5.2-2.1 0 0-2.4 0.9-3.7 0.8 0 0-1.8 3.2-4.5 4.2 0 0-1.6-4.5-2.3-7.6-0.7-3.1-1.6-4.4 0-5.1z"/>
					<path id="&lt;Path&gt;" class="s34" d="m176.9 196.6c1.8-0.8 8.7-1.7 10.5-1.4 1.8 0.4 4.9 2.6 6.3 3.6 1.4 1 3.8 4 3.9 4.8 0.2 0.9-3.3 3.5-5 2.8-1.7-0.7-5.2-2.1-5.2-2.1 0 0-2.4 0.9-3.7 0.8 0 0-1.8 3.2-4.5 4.2 0 0-1.6-4.5-2.3-7.6-0.7-3.1-1.6-4.4 0-5.1z"/>
					<path id="&lt;Path&gt;" class="s4" d="m217.5 210.6c6.5 5.7 9.9-5.4 9.9-5.4-0.8-1.4-6.7-8.3-8.7-12.9-2-4.7-4.8-9.5-9.1-12.1-4.4-2.7-14.4-9.9-16-10.2-1.7-0.3-3.7 1.4-6.5 3.1-2.9 1.6-7.7 4.2-7.5 5.1 0.1 0.1 0.2 0.4 0.3 0.6 0.7 1.6 3.1 5 6.7 4.5 4.4-0.5 6.4-1.6 7-1 0.5 0.5 2.4 2.1 3.3 3 0 0-1.4 4.5 0.8 9.8 0.3 0.9 0.8 1.8 1.4 2.7 4.1 6.3 13 8.1 18.4 12.8z"/>
					<path id="&lt;Path&gt;" class="s35" d="m206.1 224.3c9.3 5.3 36.5 20.7 36.5 20.7l9.9-24.5c0 0-12.4-6.8-25.1-15.3 0 0-13.7-24.3-24.7 4.5-1.3 3.5 3.4 14.6 3.4 14.6z"/>
					<path id="&lt;Path&gt;" class="s36" d="m197.7 195.1c0-0.9 0.5-4.9 1.1-5.8 4-6.1 0-3.9-2.6-10-0.4-1-3-4.5-3.3-4.9-0.1 0.1-2.1 3.6-7.4 4.3-0.9 0.1-2.6 1.2-5.6 0.1 0.7 1.6 3.1 5 6.7 4.5 4.4-0.5 6.4-1.6 7-1 0.5 0.5 2.4 2.1 3.3 3 0 0-1.4 4.5 0.8 9.8z"/>
				</g>
				<path id="&lt;Path&gt;" class="s13" d="m240.2 211.9c0-1.5-9.4-5.2-9.4-5.2 0 0-3.4 7.7-5.5 11-2.2 3.4-11.7 15.9-11.7 15.9l19.1 8.8c0 0 10.3-15.2 11.1-21.5 0.7-6.2-3.6-9-3.6-9z"/>
				<path id="&lt;Path&gt;" class="s37" d="m240.2 211.9c0-1.5-9.4-5.2-9.4-5.2 0 0-3.4 7.7-5.5 11-2.2 3.4-11.7 15.9-11.7 15.9l19.1 8.8c0 0 10.3-15.2 11.1-21.5 0.7-6.2-3.6-9-3.6-9z"/>
				<path id="&lt;Path&gt;" class="s1" d="m412 250c-8.5 0-76.7-1.8-83.4-4-6.7-2.3-90.7-36.7-90.7-36.7 0 0-2.6 5.9-7 15.7-2.6 5.7-10.2 18.3-10.2 18.3 0 0 70.3 36.5 95.8 44.7 42.5 13.7 102.8 16.2 105.8 17.3 3 1 4.3 49 4.3 49 0 0 4.5-26.4 5.9-55 1.3-28.6-20.5-49.3-20.5-49.3z"/>
				<path id="&lt;Path&gt;" class="s38" d="m412 250c-6 0-37 0.1-57.5-0.6q-2.3 22.5-3.9 45c28.5 4.3 69.6 10.2 71.7 10.9 3 1 4.3 49 4.3 49 0 0 4.5-26.4 5.9-55 1.3-28.6-20.5-49.3-20.5-49.3z"/>
			</g>
			<g id="&lt;Group&gt;">
				<path id="&lt;Path&gt;" class="s39" d="m570.2 268c-13.9-8.2-39.9-13.2-45.9-19.2 0 0-21.9 15.4-27.8 25.4-2.5 4.3-20.1-4.3-20.1-4.3l-12.5-18.6-34.2 8.1c1.4 11.3-14.3 152.2-13.4 188.3 19.9 1.6 54.7 22.9 68.9 32q0 0.4 0 0.7 0.3-0.1 0.7-0.3c3.5 2.3 5.6 3.8 5.6 3.8 0 0-0.1-2.3-0.1-6.1 18.8-8.2 37.4-16.9 56.5-24.2 0.6-11.1 22.3-185.6 22.3-185.6z"/>
				<path id="&lt;Path&gt;" class="s40" d="m570.2 268c-13.9-8.2-39.9-13.2-45.9-19.2 0 0-21.9 15.4-27.8 25.4-2.5 4.3-20.1-4.3-20.1-4.3l-12.5-18.6-34.2 8.1c1.4 11.3-14.3 152.2-13.4 188.3 19.9 1.6 54.7 22.9 68.9 32q0 0.4 0 0.7 0.3-0.1 0.7-0.3c3.5 2.3 5.6 3.8 5.6 3.8 0 0-0.1-2.3-0.1-6.1 18.8-8.2 37.4-16.9 56.5-24.2 0.6-11.1 22.3-185.6 22.3-185.6z"/>
				<g id="&lt;Group&gt;">
					<path id="&lt;Path&gt;" class="s41" d="m493 285.6c0 35.7 9.9 101 11 133.3 0.1 4.5-4.9 21-20.5 33 0 0-15.7-12-16.7-32-1.1-19.9 15.2-136.6 15.2-136.6l7-7.2z"/>
					<path id="&lt;Path&gt;" class="s42" d="m480.1 298.1c0.9-5.3 1.9-14.9 1.9-14.9l7-7.1 4 9.5c0 4.1 0.3 13 0.5 17.8q-6.6-2.8-13.4-5.3z"/>
				</g>
			</g>
			<g id="&lt;Group&gt;">
				<path id="&lt;Path&gt;" class="s43" d="m307.3 897.3c-2.1 6.1 0.7 11.2 0.7 11.2 0 0 11.5 4.4 37.5 1 17.5-2.3 23.7-9.3 35.9-6.5 3.8 0.9 17.3-2.5 17.3-2.5l-0.6-13.1h-54c0 0-31.1-6.7-36.8 9.9z"/>
				<path id="&lt;Path&gt;" class="s44" d="m352.1 862c0 0-19.7 19.8-33 25.9-20.5 9.5-11.1 14.6-11.1 14.6 0 0 9.6 4 29.5 2.2 5.3-0.4 8.8-1.2 15.7-4.3 12.9-5.9 21.8-6.1 27.7-5.8 11.4 0.4 11.9-2.3 17.2-4.1l0.5-21.3z"/>
				<path id="&lt;Path&gt;" class="s45" d="m398.2 887.8l0.4-18.6-46.5-7.2c0 0-5 4.7-8.1 7.2 17.4 10.8 34 15.9 54.2 18.6z"/>
			</g>
			<g id="&lt;Group&gt;">
				<path id="&lt;Path&gt;" class="s43" d="m643.7 888c3.6 8.5-3.5 12.7-6.8 13.4-19.6 4.1-45.3 1.2-53.8 0.2-4.4-0.5-8.3-3.2-11.5-4.1-1.5-0.3-2.8 1.3-4 0.9-6.2-1.9-9.4-3.8-9.4-3.8 0.4-5.3-0.7-11-0.4-16.3 29.2 0 10.6 0 31.4 0 0 0 47.6-6.2 54.5 9.7z"/>
				<path id="&lt;Path&gt;" class="s44" d="m599.6 852.9c0 0 10.7 13.7 30.6 23.9 24.2 12.4 17.9 20-10.2 19.6-4-0.1-19.3 1.9-39-5.1-19.1-6.9-20.7-7.7-23.2-10-0.3-8.5-0.5-12.7-0.8-21.2 26.9-1.7 23.1-5.6 42.6-7.2z"/>
				<path id="&lt;Path&gt;" class="s46" d="m557.7 878.7c-0.3-7.5-0.4-11.2-0.7-18.6 26.9-1.7 23.1-5.6 42.6-7.2 0 0 1.8 1.6 4.9 4.1-17.6 10.9-19.3 19-46.8 21.7z"/>
			</g>
			<path id="&lt;Path&gt;" class="s1" d="m564.4 500.6c2.7 64.8 32.3 151.7 34 198.8 1.8 47.1 10.3 159.5 10.3 159.5 0 0-5.5 2.7-14.6 6.5-9.2 3.7-25.1 5.5-39.9-2.3 0 0-5-81.7-12-142.7-6.9-60.3-66.8-186.4-66.8-186.4v-90.5l76.8 2c0 0 10.5 14.9 12.2 55.1z"/>
			<path id="&lt;Path&gt;" class="s1" d="m402.5 500.6c-31.2 103.8-38.7 151.7-40.4 198.8-1.8 47.1-15.7 159.5-15.7 159.5 0 0 2.4 8.8 11.5 12.6 9.2 3.7 28.1 5.5 42.9-2.3 0 0 14.4-89.9 21.4-150.9 7-61.1 69.2-184.3 69.2-184.3l0.1-90.5-76.8 2c0 0-0.6 16.5-12.2 55.1z"/>
			<path id="&lt;Path&gt;" class="s47" d="m483.6 554c0-0.2-0.1-0.4-0.2-0.7q-0.1 0.3-0.1 0.5-40.2-22.3-81.1-43.1 0.1-5.2 0.3-10.1c1.7-40.2 12.2-55.1 12.2-55.1l60.7-1.6v-0.4l8 0.2 8.1-0.2v0.4l60.7 1.6c0 0 10.5 14.9 12.2 55.1 1.3 30.7 16.3 84.7 26.3 144.9-28.7-17.3-77.8-75.2-107.1-91.5z"/>
			<path id="&lt;Path&gt;" class="s48" d="m501.5 259.4l-7.2 20 22.8-9.5z"/>
			<path id="&lt;Path&gt;" class="s48" d="m477.5 258.9c0 0 7.9 13 8.7 22.9l-18.8-11.5 3.4-19z"/>
			<path id="&lt;Path&gt;" class="s41" d="m513.1 271c0 0-15.5 9.1-25.3 10.8 0 0-15.7-7.2-18.4-12.6l-2-14.9c0 0 4.1 6.5 10.1 11.7 6.1 5.3 11.6 9.1 15.7 6.3 4-2.9 15.1-14.4 15.1-14.4z"/>
			<path id="&lt;Path&gt;" class="s42" d="m500.3 266c4-4 8-8.1 8-8.1l4.8 13.1c0 0-3.3 1.9-7.8 4.2q-2.5-4.6-5-9.2z"/>
			<path id="&lt;Path&gt;" class="s42" d="m471 271.4c-0.7-0.7-1.3-1.5-1.6-2.2l-2-14.9c0 0 2.8 4.4 7.2 8.9q-1.8 4.1-3.6 8.2z"/>
			<path id="&lt;Path&gt;" class="s39" d="m523.3 243.1l-21.8 16.3c0 0 13.6 21 13.6 19.9 0-1.1 15.9-25.9 15.9-25.9z"/>
			<path id="&lt;Path&gt;" class="s39" d="m472.7 242.6l4.8 16.3c0 0-6.8 6.2-11.8 17.2l-5.4-26.6c0 0 9.1-3.2 12.4-6.9z"/>
			<path id="&lt;Path&gt;" class="s41" d="m494.1 271.2c0 0 4.4 5.8 4.2 8-0.2 2.6-4 2.6-5.3 9.8-0.3 2.2-10.7 0.2-11.4-2.6-1.3-5.9-4.3-6.9-4.2-9.9 0-1.9 3.7-6.6 3.7-6.6z"/>
			<path id="&lt;Path&gt;" class="s49" d="m574.4 645.5c9.8 40.1 9.8 132.2 19.7 219.9"/>
			<path id="&lt;Path&gt;" class="s49" d="m383.1 663.7c0 0-11.8 95.7-25.2 207.8"/>
			<path id="&lt;Path&gt;" class="s1" d="m532.8 251.6c15.3 0 45.1 4.8 48.2 6.3 3 1.5 9.1 3.3 9.7 6.9 0.6 3.7-10.3 46.2-10.3 55.3 0 9.2-1.9 88.2-2.5 105.3-0.9 26.5-3.6 88-3.6 88-3.7-5.9-9.9-12.8-35.7-22.5-17.8-6.8-68.7-15-68.7-15 0 0 10.7-91.1 14.3-111.9 3.6-20.7 4.8-38.4 9.5-44.5 4.6-6 39.1-67.9 39.1-67.9z"/>
			<path id="&lt;Path&gt;" class="s50" d="m552.3 261.7q-0.4-4.4-0.8-8.8c-6.8-0.8-13.6-1.3-18.7-1.3 0 0-34.5 61.9-39.1 67.9-4.7 6.1-5.9 23.8-9.5 44.5-2.7 15.7-3.6 71.8-3.9 98.3 25.6-10.5 71-165.1 72-200.6z"/>
			<path id="&lt;Path&gt;" class="s1" d="m532.8 247.9c-5.6 10.1-24.4 41-32.7 53.7-8.3 12.6-14.2 32.7-15.1 42.2-0.9 9.6-3 36.6-3 36.6 0 0 16.2-42.6 26-55.7 9.8-13.1 20.4-17.8 20.4-17.8l-3.1-12.7 11.5-0.9c0 0 0.7-14.8 2.4-24.9 1.9-11.9 5-17.1 5-17.1z"/>
			<path id="&lt;Path&gt;" class="s1" d="m453.9 247.9c0 0-33.4-4.5-37.6-5.3-4.3-0.8-9.3 2.4-11.1 3.3-1.8 0.9-3.6 57.8-4.1 73.3-0.4 15.5 5 48.4 1.8 71.6-1.2 8.9-10.4 55.6-15.5 67.5-5 11.8-4.5 17.3-4.1 18.7 0.5 1.3 1.9-12.7 35.6-6.9 26.1 4.5 58.6 6.9 58.6 6.9 0 0 4.5-64.3 4.5-96.6 0-24.1-0.6-43.1-5.2-67.4-4.6-24.3-22.9-65.1-22.9-65.1z"/>
			<path id="&lt;Path&gt;" class="s51" d="m476.8 313c-4.6-24.3-22.9-65.1-22.9-65.1 0 0-2.6-0.3-6.5-0.9 19.4 172.9-2.4 184.6 6.1 229.8 14.1 0.3 24 0.2 24 0.2 0 0 4.5-64.3 4.5-96.6 0-24.1-0.6-43.1-5.2-67.4z"/>
			<path id="&lt;Path&gt;" class="s1" d="m462.1 245.9c0 0 15 38.4 18 52.2 3 13.8 6 33.7 4.9 45.7-1.1 12.1-3 36.6-3 36.6 0 0-6.6-31.5-13-47-6.4-15.5-9.6-24-9.6-24l7.7-10.2-11.3-2.1c0 0-0.2-20.4-1.9-32.2-1.7-11.8-4.5-18.1-4.5-18.1z"/>
			<path id="&lt;Path&gt;" class="s52" d="m508.4 399.4l49 8.6-2.1 9.6-47.8-7.9z"/>
			<path id="&lt;Path&gt;" class="s53" d="m414.3 393l49.7 2-0.7 9.8-48.5-1.4z"/>
		</g>
		<g id="&lt;Group&gt;">
			<g id="&lt;Group&gt;">
				<path id="&lt;Path&gt;" class="s54" d="m317.1 380.9c0 0-7 3-8.2 6.3 0 0-4.7-4-6.5-4 0 0 4.8-8.1 14.7-2.3z"/>
				<g id="&lt;Group&gt;">
					<path id="&lt;Path&gt;" class="s55" d="m141.7 141.2c3.8 8 4.9 8.7 4.9 8.7 0 0-7.2-4.7-11-2.5 0 0 2.7-5.3-1.5-8.4z"/>
				</g>
				<path id="&lt;Path&gt;" class="s56" d="m916.2 129.8c0 0-0.3 5 1.4 6.7l-6.8 6.4c0 0 2.7-6.7 1.4-10.4z"/>
				<path id="&lt;Path&gt;" class="s57" d="m734.4 306.3c0 0 5.2-1.7 7.7 4.2 0 0-4.2-0.3-7.3 2.4 0 0-2.5-4.1-0.4-6.6z"/>
				<g id="&lt;Group&gt;">
					<path id="&lt;Path&gt;" class="s55" d="m772.1 104.7c0 0 5.5-1.9 8.1 4.4 0 0-4.4-0.4-7.7 2.6 0 0-2.6-4.5-0.4-7z"/>
				</g>
				<path id="&lt;Path&gt;" class="s58" d="m625.1 228.7c5.7 2.3 8.4 3.1 8.4 3.1l2.4 7.9-6.4-3z"/>
				<path id="&lt;Path&gt;" class="s58" d="m201.1 307.8c-3 1.6-4.4 2.6-4.4 2.6l-3.4-3.5 3.6-1.6z"/>
				<path id="&lt;Path&gt;" class="s54" d="m610.5 160.2c0 0-7 2.9-8.3 6.3 0 0-4.7-4.1-6.5-4.1 0 0 4.8-8.1 14.8-2.2z"/>
				<path id="&lt;Path&gt;" class="s54" d="m825.3 51l-7.5-1.3c0 0 1.6 4.5 1.4 5.6-0.3 1 3.7-1.6 6.1-4.3z"/>
				<g id="&lt;Group&gt;">
					<path id="&lt;Path&gt;" class="s59" d="m395.8 198.5c0 0 4.7 0.3 6.2-1.5l6 6.8c0 0-6.3-2.6-9.7-1.2z"/>
				</g>
				<path id="&lt;Path&gt;" class="s56" d="m206.3 208.8l-10.3-1.8c0 0 2.2 6.2 1.8 7.7-0.3 1.5 5.2-2.2 8.5-5.9z"/>
				<path id="&lt;Path&gt;" class="s56" d="m141.6 40.1c0 0 8.1-2.7 11.8 6.4 0 0-6.4-0.5-11.2 3.8 0 0-3.8-6.5-0.6-10.2z"/>
				<path id="&lt;Path&gt;" class="s56" d="m332.6 161l8.9-4.9c0 0-5.5-3.4-6.2-4.7-0.6-1.4-2.5 4.8-2.7 9.6z"/>
				<path id="&lt;Path&gt;" class="s60" d="m530.7 24.2c6.9 1.4 10.3 1.8 10.3 1.8l0.9 9.9-7.7-2.2z"/>
				<path id="&lt;Path&gt;" class="s60" d="m78.3 187.3c0 0-0.3 6.3-3.5 8.8-3.2 2.6-3.2 2.6-3.2 2.6l2.6-6z"/>
				<path id="&lt;Path&gt;" class="s57" d="m846.1 89.3c0 0-0.2 4.5-2.5 6.3-2.3 1.8-2.3 1.8-2.3 1.8l1.9-4.2z"/>
				<path id="&lt;Path&gt;" class="s57" d="m771.6 197.1l-7.5-1.4c0 0 1.6 4.6 1.3 5.7-0.2 1 3.8-1.6 6.2-4.3z"/>
				<path id="&lt;Path&gt;" class="s57" d="m934.5 77.2c0 0-8-2.7-11.8 6.4 0 0 6.4-0.5 11.3 3.7 0 0 3.7-6.4 0.5-10.1z"/>
				<path id="&lt;Path&gt;" class="s57" d="m441.2 143.8c0 0 4.9-8.8 6.7 1.9l-11.4 7z"/>
				<path id="&lt;Path&gt;" class="s61" d="m471.3 62.2c0 0-0.2 4.7-2.6 6.6-2.4 1.9-2.4 1.9-2.4 1.9l2-4.4z"/>
				<path id="&lt;Path&gt;" class="s60" d="m738.8 61.7c0 0-6.9 2.9-8.2 6.3 0 0-4.7-4.1-6.5-4.1 0 0 4.8-8.1 14.7-2.2z"/>
				<path id="&lt;Path&gt;" class="s58" d="m234.5 13.9l0.9 11.1-10.2-3-3-8.1z"/>
				<path id="&lt;Path&gt;" class="s54" d="m670.6 102.9l-7.5-1.3c0 0 1.6 4.5 1.3 5.6-0.3 1.1 3.8-1.6 6.2-4.3z"/>
				<path id="&lt;Path&gt;" class="s57" d="m553.7 86.9c0 0 6.1-2 8.9 4.8 0 0-4.8-0.4-8.5 2.8 0 0-2.8-4.8-0.4-7.6z"/>
				<g id="&lt;Group&gt;">
					<path id="&lt;Path&gt;" class="s59" d="m867.9 190c0 0 8-2.7 11.8 6.4 0 0-6.4-0.5-11.2 3.7 0 0-3.8-6.4-0.6-10.1z"/>
				</g>
				<g id="&lt;Group&gt;">
					<path id="&lt;Path&gt;" class="s59" d="m286.3 509.7c0 0 8-2.7 11.8 6.4 0 0-6.4-0.5-11.2 3.8 0 0-3.8-6.5-0.6-10.2z"/>
				</g>
				<path id="&lt;Path&gt;" class="s58" d="m748.3 399.7c-5.3-0.5-7.9-0.5-7.9-0.5l-1.3-7.4 5.9 1z"/>
				<path id="&lt;Path&gt;" class="s54" d="m94.5 189.7l8.9-5c0 0-5.5-3.4-6.1-4.7-0.7-1.3-2.6 4.9-2.8 9.7z"/>
				<path id="&lt;Path&gt;" class="s54" d="m705 18.9l8.9-5c0 0-5.5-3.4-6.1-4.7-0.7-1.4-2.6 4.8-2.8 9.7z"/>
				<g id="&lt;Group&gt;">
					<path id="&lt;Path&gt;" class="s55" d="m755 17.8l-7.5-1.3c0 0 1.6 4.6 1.4 5.6-0.3 1.1 3.7-1.6 6.1-4.3z"/>
				</g>
				<g id="&lt;Group&gt;">
					<path id="&lt;Path&gt;" class="s55" d="m897.8 51.6l-2-7.3c0 0-3.4 3.3-4.5 3.6-1.1 0.2 3 2.7 6.5 3.7z"/>
				</g>
				<path id="&lt;Path&gt;" class="s62" d="m921.4 13.9h1.3c-0.4 2.7-1.5 7.2-4.3 9.4-4.2 3.4-4.2 3.4-4.2 3.4l3.4-7.8z"/>
				<path id="&lt;Path&gt;" class="s56" d="m712.5 167.2c0 0-0.3 5 1.4 6.7l-6.7 6.3c0 0 2.6-6.7 1.3-10.3z"/>
				<path id="&lt;Path&gt;" class="s57" d="m119.6 69.1l-7.5-1.4c0 0 1.6 4.6 1.3 5.6-0.3 1.1 3.7-1.6 6.2-4.2z"/>
				<g id="&lt;Group&gt;">
					<path id="&lt;Path&gt;" class="s59" d="m54.8 110.1c3.3 0.7 5 0.9 5 0.9l0.4 4.8-3.7-1.1z"/>
				</g>
				<path id="&lt;Path&gt;" class="s61" d="m616.1 357.5c-5.4 2.8-7.9 4.5-7.9 4.5l-6-6.2 6.3-2.7z"/>
				<path id="&lt;Path&gt;" class="s61" d="m602.8 245.6c0 0-0.3 4.7-2.6 6.6-2.4 1.9-2.4 1.9-2.4 1.9l1.9-4.5z"/>
				<path id="&lt;Path&gt;" class="s60" d="m781.7 310c0 0-7 2.9-8.3 6.3 0 0-4.7-4.1-6.4-4.1 0 0 4.7-8.1 14.7-2.2z"/>
				<path id="&lt;Path&gt;" class="s60" d="m113.1 248.6c0 0-0.2 4.6 1.3 6.1 0 0-3.4 1.6-3.8 2.5 0 0-3.2-4.6 2.5-8.6z"/>
				<path id="&lt;Path&gt;" class="s54" d="m65.3 49.2l-7.5-1.3c0 0 1.6 4.5 1.3 5.6-0.2 1.1 3.8-1.6 6.2-4.3z"/>
				<path id="&lt;Path&gt;" class="s57" d="m24.9 36.1c0 0 5-1.6 7.4 4.1 0 0-4-0.4-7 2.3 0 0-2.4-4-0.4-6.4z"/>
				<g id="&lt;Group&gt;">
					<path id="&lt;Path&gt;" class="s59" d="m293.4 45.8c0 0 6.6-2.2 9.7 5.3 0 0-5.3-0.5-9.3 3.1 0 0-3.1-5.3-0.4-8.4z"/>
				</g>
				<g id="&lt;Group&gt;">
					<path id="&lt;Path&gt;" class="s55" d="m839.7 252.1c5.5-0.5 6.2-1 6.2-1 0 0-4.3 3.2-3.8 6 0 0-2.6-2.8-5.3-0.9z"/>
				</g>
				<path id="&lt;Path&gt;" class="s61" d="m406.4 30.5c4.2 0.8 6.2 1.1 6.2 1.1l0.5 5.9-4.5-1.4z"/>
				<path id="&lt;Path&gt;" class="s61" d="m218.8 98.1c4.1 0.8 6.2 1 6.2 1l0.5 5.9-4.6-1.3z"/>
				<path id="&lt;Path&gt;" class="s54" d="m337 113l9-5c0 0-5.6-3.4-6.2-4.7-0.6-1.4-2.5 4.8-2.8 9.7z"/>
				<path id="&lt;Path&gt;" class="s57" d="m411.1 113.4c0 0 6.4-2.1 9.3 5.1 0 0-5.1-0.5-8.9 2.9 0 0-2.9-5.1-0.4-8z"/>
				<path id="&lt;Path&gt;" class="s56" d="m689.5 82.1c0 0 0.5 4.6 2.5 5.9l-5.6 7c0 0 1.5-6.6-0.5-9.7z"/>
				<g id="&lt;Group&gt;">
					<path id="&lt;Path&gt;" class="s55" d="m447.4 14.6l1.1-0.7h3.7c0.1 1.9 0.4 4.4 1.6 5.6l-8 7.6c0 0 3.2-8 1.6-12.5z"/>
				</g>
				<path id="&lt;Path&gt;" class="s57" d="m635.1 37.3c0 0 6.3-2.1 9.2 4.9 0 0-5-0.4-8.7 2.9 0 0-3-4.9-0.5-7.8z"/>
			</g>
		</g>
	</g>
</svg>